<?xml version="1.0" encoding="UTF-8"?>
<svg width="700pt" height="700pt" version="1.1" viewBox="0 0 700 700" xmlns="http://www.w3.org/2000/svg" xmlns:xlink="http://www.w3.org/1999/xlink">
 <defs>
  <symbol id="t" overflow="visible">
   <path d="m7.4062-0.4375c-0.375 0.19922-0.77344 0.34375-1.1875 0.4375-0.41797 0.10156-0.85156 0.15625-1.2969 0.15625-1.3438 0-2.4141-0.375-3.2031-1.125-0.78125-0.75-1.1719-1.7695-1.1719-3.0625 0-1.2812 0.39062-2.2969 1.1719-3.0469 0.78906-0.75 1.8594-1.125 3.2031-1.125 0.44531 0 0.87891 0.054687 1.2969 0.15625 0.41406 0.09375 0.8125 0.24219 1.1875 0.4375v1.6719c-0.38672-0.26953-0.76562-0.46094-1.1406-0.57812-0.375-0.125-0.76562-0.1875-1.1719-0.1875-0.75 0-1.3398 0.24219-1.7656 0.71875-0.41797 0.46875-0.625 1.1211-0.625 1.9531 0 0.83594 0.20703 1.4922 0.625 1.9688 0.42578 0.48047 1.0156 0.71875 1.7656 0.71875 0.40625 0 0.79688-0.0625 1.1719-0.1875s0.75391-0.31641 1.1406-0.57812z"/>
  </symbol>
  <symbol id="b" overflow="visible">
   <path d="m5.4219-4.4062c-0.16797-0.070312-0.33594-0.12891-0.5-0.17188-0.16797-0.039063-0.33984-0.0625-0.51562-0.0625-0.49219 0-0.87109 0.16406-1.1406 0.48438-0.27344 0.32422-0.40625 0.78125-0.40625 1.375v2.7812h-1.9375v-6.0469h1.9375v0.98438c0.25-0.39453 0.53516-0.67969 0.85938-0.85938 0.32031-0.1875 0.70703-0.28125 1.1562-0.28125 0.0625 0 0.12891 0.007813 0.20312 0.015625 0.082031 0.011719 0.19531 0.023438 0.34375 0.03125z"/>
  </symbol>
  <symbol id="a" overflow="visible">
   <path d="m6.9688-3.0469v0.5625h-4.5156c0.039063 0.44922 0.20312 0.78906 0.48438 1.0156 0.28125 0.23047 0.67188 0.34375 1.1719 0.34375 0.40625 0 0.82031-0.054688 1.25-0.17188 0.42578-0.125 0.86719-0.3125 1.3281-0.5625v1.4844c-0.46094 0.17969-0.91797 0.30859-1.375 0.39062-0.46094 0.09375-0.91797 0.14062-1.375 0.14062-1.0938 0-1.9492-0.27344-2.5625-0.82812-0.60547-0.5625-0.90625-1.3438-0.90625-2.3438 0-0.98828 0.29688-1.7656 0.89062-2.3281 0.60156-0.57031 1.4258-0.85938 2.4688-0.85938 0.94531 0 1.707 0.28906 2.2812 0.85938 0.57031 0.57422 0.85938 1.3398 0.85938 2.2969zm-1.9844-0.64062c0-0.36328-0.10938-0.65625-0.32812-0.875-0.21094-0.22656-0.49219-0.34375-0.84375-0.34375-0.375 0-0.67969 0.10547-0.90625 0.3125-0.23047 0.21094-0.375 0.51172-0.4375 0.90625z"/>
  </symbol>
  <symbol id="e" overflow="visible">
   <path d="m3.6406-2.7188c-0.40625 0-0.71484 0.070312-0.92188 0.20312-0.19922 0.13672-0.29688 0.33984-0.29688 0.60938 0 0.24219 0.082031 0.43359 0.25 0.57812 0.16406 0.13672 0.39453 0.20312 0.6875 0.20312 0.36328 0 0.66406-0.12891 0.90625-0.39062 0.25-0.25781 0.375-0.58594 0.375-0.98438v-0.21875zm2.9531-0.73438v3.4531h-1.9531v-0.89062c-0.26172 0.36719-0.55469 0.63281-0.875 0.79688-0.32422 0.16406-0.71484 0.25-1.1719 0.25-0.63672 0-1.1523-0.17969-1.5469-0.54688-0.38672-0.36328-0.57812-0.83594-0.57812-1.4219 0-0.70703 0.24219-1.2266 0.73438-1.5625 0.48828-0.33203 1.2539-0.5 2.2969-0.5h1.1406v-0.15625c0-0.30078-0.12109-0.51953-0.35938-0.65625-0.24219-0.14453-0.61719-0.21875-1.125-0.21875-0.41797 0-0.80469 0.042969-1.1562 0.125-0.35547 0.085938-0.6875 0.21094-1 0.375v-1.4844c0.41406-0.09375 0.83203-0.16406 1.25-0.21875 0.41406-0.0625 0.83203-0.09375 1.25-0.09375 1.0938 0 1.8789 0.21875 2.3594 0.65625 0.48828 0.42969 0.73438 1.125 0.73438 2.0938z"/>
  </symbol>
  <symbol id="d" overflow="visible">
   <path d="m3.0469-7.7656v1.7188h1.9844v1.375h-1.9844v2.5781c0 0.27344 0.050781 0.46094 0.15625 0.5625 0.11328 0.09375 0.33594 0.14062 0.67188 0.14062h0.98438v1.3906h-1.6562c-0.76172 0-1.3047-0.15625-1.625-0.46875-0.3125-0.32031-0.46875-0.86328-0.46875-1.625v-2.5781h-0.96875v-1.375h0.96875v-1.7188z"/>
  </symbol>
  <symbol id="l" overflow="visible">
   <path d="m5.0469-5.1562v-3.25h1.9375v8.4062h-1.9375v-0.875c-0.27344 0.35547-0.57031 0.61719-0.89062 0.78125-0.3125 0.16406-0.68359 0.25-1.1094 0.25-0.74219 0-1.3516-0.29688-1.8281-0.89062-0.48047-0.59375-0.71875-1.3516-0.71875-2.2812 0-0.9375 0.23828-1.7031 0.71875-2.2969 0.47656-0.59375 1.0859-0.89062 1.8281-0.89062 0.41406 0 0.78516 0.089844 1.1094 0.26562 0.32031 0.16797 0.61719 0.42969 0.89062 0.78125zm-1.2812 3.9062c0.41406 0 0.73438-0.14844 0.95312-0.45312 0.21875-0.30078 0.32812-0.73828 0.32812-1.3125 0-0.58203-0.10938-1.0234-0.32812-1.3281-0.21875-0.30078-0.53906-0.45312-0.95312-0.45312-0.40625 0-0.71875 0.15234-0.9375 0.45312-0.21875 0.30469-0.32812 0.74609-0.32812 1.3281 0 0.57422 0.10938 1.0117 0.32812 1.3125 0.21875 0.30469 0.53125 0.45312 0.9375 0.45312z"/>
  </symbol>
  <symbol id="k" overflow="visible">
   <path d="m4.1562-1.25c0.40625 0 0.71875-0.14844 0.9375-0.45312 0.21875-0.30078 0.32812-0.73828 0.32812-1.3125 0-0.58203-0.10938-1.0234-0.32812-1.3281-0.21875-0.30078-0.53125-0.45312-0.9375-0.45312-0.41797 0-0.74219 0.15625-0.96875 0.46875-0.21875 0.30469-0.32812 0.74219-0.32812 1.3125 0 0.57422 0.10938 1.0117 0.32812 1.3125 0.22656 0.30469 0.55078 0.45312 0.96875 0.45312zm-1.2969-3.9062c0.26953-0.35156 0.56641-0.61328 0.89062-0.78125 0.32031-0.17578 0.69141-0.26562 1.1094-0.26562 0.75 0 1.3633 0.29688 1.8438 0.89062 0.47656 0.59375 0.71875 1.3594 0.71875 2.2969 0 0.92969-0.24219 1.6875-0.71875 2.2812-0.48047 0.59375-1.0938 0.89062-1.8438 0.89062-0.41797 0-0.78906-0.085938-1.1094-0.25-0.32422-0.16406-0.62109-0.42578-0.89062-0.78125v0.875h-1.9375v-8.4062h1.9375z"/>
  </symbol>
  <symbol id="j" overflow="visible">
   <path d="m0.14062-6.0469h1.9219l1.625 4.1094 1.3906-4.1094h1.9375l-2.5469 6.625c-0.26172 0.66406-0.5625 1.1328-0.90625 1.4062-0.33594 0.26953-0.78125 0.40625-1.3438 0.40625h-1.1094v-1.2656h0.60938c0.32031 0 0.55469-0.054688 0.70312-0.15625 0.15625-0.10547 0.27344-0.29297 0.35938-0.5625l0.046875-0.17188z"/>
  </symbol>
  <symbol id="f" overflow="visible">
   <path d="m7.0156-3.6875v3.6875h-1.9531v-2.8125c0-0.53125-0.011719-0.89453-0.03125-1.0938-0.023438-0.19531-0.0625-0.34375-0.125-0.4375-0.074219-0.125-0.17969-0.21875-0.3125-0.28125-0.125-0.070312-0.27344-0.10938-0.4375-0.10938-0.40625 0-0.72656 0.15625-0.95312 0.46875-0.23047 0.3125-0.34375 0.74609-0.34375 1.2969v2.9688h-1.9375v-6.0469h1.9375v0.89062c0.28906-0.35156 0.59766-0.61328 0.92188-0.78125 0.33203-0.17578 0.69531-0.26562 1.0938-0.26562 0.69531 0 1.2266 0.21875 1.5938 0.65625 0.36328 0.42969 0.54688 1.0469 0.54688 1.8594z"/>
  </symbol>
  <symbol id="i" overflow="visible">
   <path d="m0.92188-6.0469h1.9375v6.0469h-1.9375zm0-2.3594h1.9375v1.5781h-1.9375z"/>
  </symbol>
  <symbol id="c" overflow="visible">
   <path d="m3.8125-4.8125c-0.42969 0-0.75781 0.15625-0.98438 0.46875-0.23047 0.30469-0.34375 0.74609-0.34375 1.3281 0 0.57422 0.11328 1.0156 0.34375 1.3281 0.22656 0.3125 0.55469 0.46875 0.98438 0.46875 0.41406 0 0.73438-0.15625 0.95312-0.46875 0.22656-0.3125 0.34375-0.75391 0.34375-1.3281 0-0.58203-0.11719-1.0234-0.34375-1.3281-0.21875-0.3125-0.53906-0.46875-0.95312-0.46875zm0-1.3906c1.0391 0 1.8516 0.28125 2.4375 0.84375 0.58203 0.5625 0.875 1.3438 0.875 2.3438 0 0.99219-0.29297 1.7656-0.875 2.3281-0.58594 0.5625-1.3984 0.84375-2.4375 0.84375-1.0547 0-1.875-0.28125-2.4688-0.84375-0.58594-0.5625-0.875-1.3359-0.875-2.3281 0-1 0.28906-1.7812 0.875-2.3438 0.59375-0.5625 1.4141-0.84375 2.4688-0.84375z"/>
  </symbol>
  <symbol id="h" overflow="visible">
   <path d="m4.9062-8.4062v1.2656h-1.0625c-0.27344 0-0.46484 0.054687-0.57812 0.15625-0.10547 0.09375-0.15625 0.26562-0.15625 0.51562v0.42188h1.6562v1.375h-1.6562v4.6719h-1.9375v-4.6719h-0.96875v-1.375h0.96875v-0.42188c0-0.65625 0.17969-1.1406 0.54688-1.4531 0.375-0.32031 0.94531-0.48438 1.7188-0.48438z"/>
  </symbol>
  <symbol id="s" overflow="visible">
   <path d="m3.7656-4.7969c-0.40625 0-0.71875 0.15234-0.9375 0.45312-0.21875 0.30469-0.32812 0.74609-0.32812 1.3281 0 0.57422 0.10938 1.0117 0.32812 1.3125 0.21875 0.30469 0.53125 0.45312 0.9375 0.45312 0.41406 0 0.73438-0.14844 0.95312-0.45312 0.21875-0.30078 0.32812-0.73828 0.32812-1.3125 0-0.58203-0.10938-1.0234-0.32812-1.3281-0.21875-0.30078-0.53906-0.45312-0.95312-0.45312zm1.2812 3.9219c-0.27344 0.35547-0.57031 0.61719-0.89062 0.78125-0.3125 0.16406-0.68359 0.25-1.1094 0.25-0.74219 0-1.3516-0.29688-1.8281-0.89062-0.48047-0.59375-0.71875-1.3516-0.71875-2.2812 0-0.9375 0.23828-1.6953 0.71875-2.2812 0.47656-0.59375 1.0859-0.89062 1.8281-0.89062 0.42578 0 0.79688 0.085938 1.1094 0.25 0.32031 0.16797 0.61719 0.42969 0.89062 0.78125v-0.89062h1.9375v8.3438h-1.9375z"/>
  </symbol>
  <symbol id="g" overflow="visible">
   <path d="m7.0156-3.6875v3.6875h-1.9531v-2.8125c0-0.53125-0.011719-0.89453-0.03125-1.0938-0.023438-0.19531-0.0625-0.34375-0.125-0.4375-0.074219-0.125-0.17969-0.21875-0.3125-0.28125-0.125-0.070312-0.27344-0.10938-0.4375-0.10938-0.40625 0-0.72656 0.15625-0.95312 0.46875-0.23047 0.3125-0.34375 0.74609-0.34375 1.2969v2.9688h-1.9375v-8.4062h1.9375v3.25c0.28906-0.35156 0.59766-0.61328 0.92188-0.78125 0.33203-0.17578 0.69531-0.26562 1.0938-0.26562 0.69531 0 1.2266 0.21875 1.5938 0.65625 0.36328 0.42969 0.54688 1.0469 0.54688 1.8594z"/>
  </symbol>
  <symbol id="r" overflow="visible">
   <path d="m6.5312-5.0469c0.25-0.375 0.53906-0.66016 0.875-0.85938 0.33203-0.19531 0.70312-0.29688 1.1094-0.29688 0.69531 0 1.2266 0.21875 1.5938 0.65625 0.36328 0.42969 0.54688 1.0469 0.54688 1.8594v3.6875h-1.9531v-3.1562c0.007813-0.039062 0.015625-0.085938 0.015625-0.14062v-0.21875c0-0.42578-0.0625-0.73438-0.1875-0.92188-0.125-0.19531-0.32812-0.29688-0.60938-0.29688-0.36719 0-0.65234 0.15234-0.85938 0.45312-0.19922 0.30469-0.30469 0.74219-0.3125 1.3125v2.9688h-1.9375v-3.1562c0-0.66406-0.058594-1.0938-0.17188-1.2812-0.11719-0.19531-0.32031-0.29688-0.60938-0.29688-0.375 0-0.66797 0.15234-0.875 0.45312-0.19922 0.30469-0.29688 0.74219-0.29688 1.3125v2.9688h-1.9375v-6.0469h1.9375v0.89062c0.23828-0.34375 0.50781-0.60156 0.8125-0.78125 0.3125-0.17578 0.65625-0.26562 1.0312-0.26562 0.41406 0 0.78125 0.10547 1.0938 0.3125 0.32031 0.19922 0.56641 0.48047 0.73438 0.84375z"/>
  </symbol>
  <symbol id="q" overflow="visible">
   <path d="m1.0156-8.0625h2.3281l2.9219 5.5312v-5.5312h1.9844v8.0625h-2.3281l-2.9375-5.5312v5.5312h-1.9688z"/>
  </symbol>
  <symbol id="p" overflow="visible">
   <path d="m0.85938-2.3594v-3.6875h1.9531v0.60938c0 0.32422-0.007812 0.73438-0.015625 1.2344v0.98438c0 0.49219 0.007813 0.84375 0.03125 1.0625 0.03125 0.21094 0.078125 0.35938 0.14062 0.45312 0.070312 0.125 0.17188 0.22656 0.29688 0.29688 0.13281 0.0625 0.28516 0.09375 0.45312 0.09375 0.40625 0 0.72266-0.14844 0.95312-0.45312 0.22656-0.3125 0.34375-0.74219 0.34375-1.2969v-2.9844h1.9375v6.0469h-1.9375v-0.875c-0.29297 0.35547-0.60547 0.61719-0.9375 0.78125-0.32422 0.16406-0.67969 0.25-1.0625 0.25-0.71094 0-1.2461-0.21094-1.6094-0.64062-0.36719-0.42578-0.54688-1.0508-0.54688-1.875z"/>
  </symbol>
  <symbol id="o" overflow="visible">
   <path d="m1.0156-8.0625h3.4531c1.0195 0 1.8047 0.23047 2.3594 0.6875 0.55078 0.44922 0.82812 1.0938 0.82812 1.9375s-0.27734 1.4961-0.82812 1.9531c-0.55469 0.46094-1.3398 0.6875-2.3594 0.6875h-1.375v2.7969h-2.0781zm2.0781 1.5v2.25h1.1562c0.39453 0 0.70312-0.09375 0.92188-0.28125 0.22656-0.19531 0.34375-0.47656 0.34375-0.84375 0-0.35156-0.11719-0.62891-0.34375-0.82812-0.21875-0.19531-0.52734-0.29688-0.92188-0.29688z"/>
  </symbol>
  <symbol id="n" overflow="visible">
   <path d="m0.92188-6.0469h1.9375v5.9375c0 0.8125-0.19531 1.4297-0.57812 1.8594-0.38672 0.42578-0.94922 0.64062-1.6875 0.64062h-0.96875v-1.2656h0.34375c0.36328 0 0.61328-0.085938 0.75-0.25 0.13281-0.16797 0.20312-0.49609 0.20312-0.98438zm0-2.3594h1.9375v1.5781h-1.9375z"/>
  </symbol>
  <symbol id="m" overflow="visible">
   <path d="m5.8125-5.8594v1.5781c-0.26172-0.17578-0.52734-0.30469-0.79688-0.39062-0.26172-0.09375-0.53125-0.14062-0.8125-0.14062-0.54297 0-0.96484 0.15625-1.2656 0.46875-0.30469 0.3125-0.45312 0.75781-0.45312 1.3281 0 0.5625 0.14844 1.0078 0.45312 1.3281 0.30078 0.3125 0.72266 0.46875 1.2656 0.46875 0.30078 0 0.58594-0.046875 0.85938-0.14062 0.26953-0.09375 0.51953-0.22656 0.75-0.40625v1.5938c-0.30469 0.10547-0.60938 0.17969-0.92188 0.23438-0.3125 0.0625-0.625 0.09375-0.9375 0.09375-1.0859 0-1.9375-0.27344-2.5625-0.82812-0.61719-0.5625-0.92188-1.3438-0.92188-2.3438s0.30469-1.7812 0.92188-2.3438c0.625-0.5625 1.4766-0.84375 2.5625-0.84375 0.32031 0 0.63281 0.03125 0.9375 0.09375 0.3125 0.054687 0.61719 0.13672 0.92188 0.25z"/>
  </symbol>
 </defs>
 <g>
  <path d="m106.52 413.91 332.02-183.71-367.43 48.695h380.71l-345.29-135.02 332.02 183.71-236.84-285.54 203.64 320.95-70.828-363 24.348 378.5 112.88-351.93-161.58 343.08 267.83-254.55-305.45 223.56 356.36-92.965-376.29 48.695 358.58 88.539-351.94-139.45 270.04 252.33-241.27-292.17 115.1 351.94-70.828-374.07-68.617 365.21 117.31-363-234.62 287.75 276.68-261.18-343.08 139.45 367.43-95.176-367.43-44.27 367.43 92.965-301.03-214.7 278.89 258.97-159.37-334.23 117.31 360.79 19.918-369.64-68.613 374.07 194.78-314.3-241.27 292.17 323.16-179.29-351.94 139.45 369.64-2.2148-376.29-46.484 325.38 177.08-307.67-223.56 201.42 312.09-163.79-343.08 26.562 369.64 22.133-380.71-154.94 336.44 201.42-320.95z" fill-rule="evenodd"/>
  <use x="71.105469" y="593.203125" xlink:href="#t"/>
  <use x="79.230469" y="593.203125" xlink:href="#b"/>
  <use x="84.6875" y="593.203125" xlink:href="#a"/>
  <use x="92.191406" y="593.203125" xlink:href="#e"/>
  <use x="99.660156" y="593.203125" xlink:href="#d"/>
  <use x="104.953125" y="593.203125" xlink:href="#a"/>
  <use x="112.457031" y="593.203125" xlink:href="#l"/>
  <use x="124.234375" y="593.203125" xlink:href="#k"/>
  <use x="132.15625" y="593.203125" xlink:href="#j"/>
  <use x="143.222656" y="593.203125" xlink:href="#e"/>
  <use x="150.691406" y="593.203125" xlink:href="#f"/>
  <use x="158.570312" y="593.203125" xlink:href="#i"/>
  <use x="166.214844" y="593.203125" xlink:href="#b"/>
  <use x="171.671875" y="593.203125" xlink:href="#c"/>
  <use x="179.277344" y="593.203125" xlink:href="#h"/>
  <use x="184.089844" y="593.203125" xlink:href="#i"/>
  <use x="187.886719" y="593.203125" xlink:href="#s"/>
  <use x="195.808594" y="593.203125" xlink:href="#e"/>
  <use x="203.273438" y="593.203125" xlink:href="#g"/>
  <use x="71.105469" y="604.269531" xlink:href="#h"/>
  <use x="75.921875" y="604.269531" xlink:href="#b"/>
  <use x="81.378906" y="604.269531" xlink:href="#c"/>
  <use x="88.984375" y="604.269531" xlink:href="#r"/>
  <use x="104.367188" y="604.269531" xlink:href="#d"/>
  <use x="109.65625" y="604.269531" xlink:href="#g"/>
  <use x="117.535156" y="604.269531" xlink:href="#a"/>
  <use x="128.894531" y="604.269531" xlink:href="#q"/>
  <use x="138.160156" y="604.269531" xlink:href="#c"/>
  <use x="145.761719" y="604.269531" xlink:href="#p"/>
  <use x="153.640625" y="604.269531" xlink:href="#f"/>
  <use x="165.371094" y="604.269531" xlink:href="#o"/>
  <use x="173.484375" y="604.269531" xlink:href="#b"/>
  <use x="178.941406" y="604.269531" xlink:href="#c"/>
  <use x="186.542969" y="604.269531" xlink:href="#n"/>
  <use x="190.339844" y="604.269531" xlink:href="#a"/>
  <use x="197.84375" y="604.269531" xlink:href="#m"/>
  <use x="204.40625" y="604.269531" xlink:href="#d"/>
 </g>
</svg>
