<?xml version="1.0" encoding="UTF-8"?>
<svg width="700pt" height="700pt" version="1.1" viewBox="0 0 700 700" xmlns="http://www.w3.org/2000/svg">
 <g fill-rule="evenodd">
  <path d="m195.86 542.34c17.777-9.4297 8.707-37.957 48.59-82.043 105.53-116.58 233.93-132.37 341.56-286.85 22.762-32.672 93.512-140.06 93.512-173.45-8.3477 6.1875-57.176 112.49-96.758 164.38-37.539 49.188-77.957 93.695-128.35 129.73-69.371 49.609-175.02 105.11-217.84 160.84-14.414 18.738-16.035 16.098-26.969 38.98-3.9023 8.2266-7.8672 13.273-11.59 20.84-8.4102 17.117-8.6484 15.434-2.2227 27.566z"/>
  <path d="m171.05 532.43c18.316-4.0234 51.109-80.121 91.891-123 16.516-17.355 37.836-36.277 55.316-51.652 119.28-104.98 171.29-129.01 241.2-270.99 4.9258-10.512 5.1641-14.895 2.8242-20-21.441 9.9688-26.066 73.273-82.523 135.25-32.551 35.734-73.992 71.953-111.47 102.16-35.977 29.008-79.578 66.785-111.89 101.44-14.895 15.977-88.707 111.59-85.344 126.73z"/>
  <path d="m80.059 540.78c10.211-10.148 9.668-32.012 33.453-75.434 7.5078-13.695 11.711-26.125 15.254-41.32 1.9219-8.3477 3.3633-16.457 5.1055-24.805 2.1016-8.8906 6.7852-11.891-5.8242-18.797-10.57 27.629-4.5664 50.211-23.363 83.305l-24.984 58.379c-6.0078 19.941-6.4883 14.414 0.30078 18.738z"/>
  <path d="m64.684 499.46c12.734-13.094 6.7266-46.605-5.7656-57.957-2.3438 15.254-0.42188 49.609 5.7656 57.957z"/>
  <path d="m138.38 552.97c18.738-10.211 7.6289-47.988 50.812-96.578 12.793-14.355 19.098-28.348 31.23-43.785 63.242-80.48 90.332-79.219 129.01-169.49 3.7227-8.7695 7.3281-17.719 10.512-26.367 5.2852-14.176 9.1875-18.5 4.625-27.328-10.871 5.1641-22.703 57.898-47.566 101.14-14.293 24.863-203.48 208.11-178.56 262.4z"/>
  <path d="m227.63 531.41c17.238-4.1445 9.7891-25.945 53.574-67.027 42.582-39.879 119.34-97.238 176.28-115.55 20.723-6.668 35.855 0 43.902-16.098-74.355-11.711-287.57 151.71-273.75 198.68z"/>
  <path d="m239.52 293.33c-10.211 16.098-8.2891 45.285-27.086 73.332-31.172 46.426-99.398 129.67-106.19 193.33 20-9.0703 7.7461-19.879 32.973-65.227 13.812-24.863 21.32-41.141 37.836-64.746 17.957-25.586 49.07-61.684 59.82-90.992 13.152-37.656 8.168-39.52 2.6445-45.707z"/>
  <path d="m269.19 540.78c17.957-9.4297 33.332-56.695 72.734-75.195 52.613-24.746 93.875-8.8281 102.76-37.238-8.8281-0.42188-97.477 22.883-108.77 29.07-14.773 8.1094-29.309 23.004-40.539 36.395-7.0273 8.3477-11.051 13.094-17.418 22.102-9.9102 13.934-12.613 12.434-8.707 24.984z"/>
  <path d="m408.35 512.91c-3.3633-3.543-4.0859-5.3438-9.25-6.6055-17.719-5.2266-65.707-5.2266-87.508 19.398 17.355 1.2617 22.645-9.3086 40.121-11.41 21.02-2.5234 37.477 5.3438 56.637-1.3828z"/>
  <path d="m34.176 482.76c0.35938-10.691-4.3828-10.871-13.453-15.555 0.42188 6.125-2.1641 9.9102 2.8242 15.434 10.031 10.211 9.9688 2.582 10.57 0.17969z"/>
 </g>
</svg>
